<svg width="600" height="100" viewBox="0 0 600 100" fill="none" xmlns="http://www.w3.org/2000/svg">
<mask id="mask0_717_3250" style="mask-type:alpha" maskUnits="userSpaceOnUse" x="0" y="0" width="600" height="100">
<rect width="600" height="100" fill="#C4C4C4"/>
</mask>
<g mask="url(#mask0_717_3250)">
<rect x="373.753" y="-393" width="0.7" height="711" transform="rotate(45 373.753 -393)" fill="#ACACAC"/>
<rect x="377.783" y="-388.97" width="0.7" height="711" transform="rotate(45 377.783 -388.97)" fill="#ACACAC"/>
<rect x="381.814" y="-384.939" width="0.7" height="711" transform="rotate(45 381.814 -384.939)" fill="#ACACAC"/>
<rect x="385.844" y="-380.909" width="0.7" height="711" transform="rotate(45 385.844 -380.909)" fill="#ACACAC"/>
<rect x="389.875" y="-376.878" width="0.7" height="711" transform="rotate(45 389.875 -376.878)" fill="#ACACAC"/>
<rect x="393.906" y="-372.848" width="0.7" height="711" transform="rotate(45 393.906 -372.848)" fill="#ACACAC"/>
<rect x="397.936" y="-368.817" width="0.7" height="711" transform="rotate(45 397.936 -368.817)" fill="#ACACAC"/>
<rect x="401.967" y="-364.787" width="0.7" height="711" transform="rotate(45 401.967 -364.787)" fill="#ACACAC"/>
<rect x="405.997" y="-360.756" width="0.7" height="711" transform="rotate(45 405.997 -360.756)" fill="#ACACAC"/>
<rect x="410.028" y="-356.726" width="0.7" height="711" transform="rotate(45 410.028 -356.726)" fill="#ACACAC"/>
<rect x="414.058" y="-352.695" width="0.7" height="711" transform="rotate(45 414.058 -352.695)" fill="#ACACAC"/>
<rect x="418.089" y="-348.665" width="0.7" height="711" transform="rotate(45 418.089 -348.665)" fill="#ACACAC"/>
<rect x="422.119" y="-344.634" width="0.7" height="711" transform="rotate(45 422.119 -344.634)" fill="#ACACAC"/>
<rect x="426.15" y="-340.604" width="0.7" height="711" transform="rotate(45 426.15 -340.604)" fill="#ACACAC"/>
<rect x="430.18" y="-336.573" width="0.7" height="711" transform="rotate(45 430.18 -336.573)" fill="#ACACAC"/>
<rect x="434.21" y="-332.542" width="0.7" height="711" transform="rotate(45 434.21 -332.542)" fill="#ACACAC"/>
<rect x="438.241" y="-328.512" width="0.7" height="711" transform="rotate(45 438.241 -328.512)" fill="#ACACAC"/>
<rect x="442.271" y="-324.481" width="0.7" height="711" transform="rotate(45 442.271 -324.481)" fill="#ACACAC"/>
<rect x="446.302" y="-320.451" width="0.7" height="711" transform="rotate(45 446.302 -320.451)" fill="#ACACAC"/>
<rect x="450.333" y="-316.42" width="0.7" height="711" transform="rotate(45 450.333 -316.42)" fill="#ACACAC"/>
<rect x="454.363" y="-312.39" width="0.7" height="711" transform="rotate(45 454.363 -312.39)" fill="#ACACAC"/>
<rect x="458.394" y="-308.359" width="0.7" height="711" transform="rotate(45 458.394 -308.359)" fill="#ACACAC"/>
<rect x="462.424" y="-304.329" width="0.7" height="711" transform="rotate(45 462.424 -304.329)" fill="#ACACAC"/>
<rect x="466.455" y="-300.298" width="0.7" height="711" transform="rotate(45 466.455 -300.298)" fill="#ACACAC"/>
<rect x="470.485" y="-296.268" width="0.7" height="711" transform="rotate(45 470.485 -296.268)" fill="#ACACAC"/>
<rect x="474.516" y="-292.237" width="0.7" height="711" transform="rotate(45 474.516 -292.237)" fill="#ACACAC"/>
<rect x="478.546" y="-288.207" width="0.7" height="711" transform="rotate(45 478.546 -288.207)" fill="#ACACAC"/>
<rect x="482.577" y="-284.176" width="0.7" height="711" transform="rotate(45 482.577 -284.176)" fill="#ACACAC"/>
<rect x="486.607" y="-280.146" width="0.7" height="711" transform="rotate(45 486.607 -280.146)" fill="#ACACAC"/>
<rect x="490.638" y="-276.115" width="0.7" height="711" transform="rotate(45 490.638 -276.115)" fill="#ACACAC"/>
<rect x="494.668" y="-272.085" width="0.7" height="711" transform="rotate(45 494.668 -272.085)" fill="#ACACAC"/>
<rect x="498.699" y="-268.054" width="0.7" height="711" transform="rotate(45 498.699 -268.054)" fill="#ACACAC"/>
<rect x="502.729" y="-264.024" width="0.7" height="711" transform="rotate(45 502.729 -264.024)" fill="#ACACAC"/>
<rect x="506.76" y="-259.993" width="0.7" height="711" transform="rotate(45 506.76 -259.993)" fill="#ACACAC"/>
<rect x="510.79" y="-255.963" width="0.7" height="711" transform="rotate(45 510.79 -255.963)" fill="#ACACAC"/>
<rect x="514.821" y="-251.932" width="0.7" height="711" transform="rotate(45 514.821 -251.932)" fill="#ACACAC"/>
<rect x="518.851" y="-247.902" width="0.7" height="711" transform="rotate(45 518.851 -247.902)" fill="#ACACAC"/>
<rect x="522.882" y="-243.871" width="0.7" height="711" transform="rotate(45 522.882 -243.871)" fill="#ACACAC"/>
<rect x="526.912" y="-239.841" width="0.7" height="711" transform="rotate(45 526.912 -239.841)" fill="#ACACAC"/>
<rect x="530.943" y="-235.81" width="0.7" height="711" transform="rotate(45 530.943 -235.81)" fill="#ACACAC"/>
<rect x="534.973" y="-231.78" width="0.7" height="711" transform="rotate(45 534.973 -231.78)" fill="#ACACAC"/>
<rect x="539.004" y="-227.749" width="0.7" height="711" transform="rotate(45 539.004 -227.749)" fill="#ACACAC"/>
<rect x="543.034" y="-223.719" width="0.7" height="711" transform="rotate(45 543.034 -223.719)" fill="#ACACAC"/>
<rect x="547.065" y="-219.688" width="0.7" height="711" transform="rotate(45 547.065 -219.688)" fill="#ACACAC"/>
<rect x="551.095" y="-215.658" width="0.7" height="711" transform="rotate(45 551.095 -215.658)" fill="#ACACAC"/>
<rect x="555.126" y="-211.627" width="0.7" height="711" transform="rotate(45 555.126 -211.627)" fill="#ACACAC"/>
<rect x="559.156" y="-207.597" width="0.7" height="711" transform="rotate(45 559.156 -207.597)" fill="#ACACAC"/>
<rect x="563.187" y="-203.566" width="0.7" height="711" transform="rotate(45 563.187 -203.566)" fill="#ACACAC"/>
<rect x="567.217" y="-199.536" width="0.7" height="711" transform="rotate(45 567.217 -199.536)" fill="#ACACAC"/>
<rect x="571.248" y="-195.505" width="0.7" height="711" transform="rotate(45 571.248 -195.505)" fill="#ACACAC"/>
<rect x="575.278" y="-191.475" width="0.7" height="711" transform="rotate(45 575.278 -191.475)" fill="#ACACAC"/>
<rect x="579.309" y="-187.444" width="0.7" height="711" transform="rotate(45 579.309 -187.444)" fill="#ACACAC"/>
<rect x="583.339" y="-183.414" width="0.7" height="711" transform="rotate(45 583.339 -183.414)" fill="#ACACAC"/>
<rect x="587.37" y="-179.383" width="0.7" height="711" transform="rotate(45 587.37 -179.383)" fill="#ACACAC"/>
<rect x="591.4" y="-175.353" width="0.7" height="711" transform="rotate(45 591.4 -175.353)" fill="#ACACAC"/>
<rect x="595.431" y="-171.322" width="0.7" height="711" transform="rotate(45 595.431 -171.322)" fill="#ACACAC"/>
<rect x="599.461" y="-167.292" width="0.7" height="711" transform="rotate(45 599.461 -167.292)" fill="#ACACAC"/>
<rect x="603.492" y="-163.261" width="0.7" height="711" transform="rotate(45 603.492 -163.261)" fill="#ACACAC"/>
<rect x="607.522" y="-159.23" width="0.7" height="711" transform="rotate(45 607.522 -159.23)" fill="#ACACAC"/>
<rect x="611.553" y="-155.2" width="0.7" height="711" transform="rotate(45 611.553 -155.2)" fill="#ACACAC"/>
<rect x="615.583" y="-151.169" width="0.7" height="711" transform="rotate(45 615.583 -151.169)" fill="#ACACAC"/>
<rect x="619.614" y="-147.139" width="0.7" height="711" transform="rotate(45 619.614 -147.139)" fill="#ACACAC"/>
<rect x="623.645" y="-143.108" width="0.7" height="711" transform="rotate(45 623.645 -143.108)" fill="#ACACAC"/>
<rect x="627.675" y="-139.078" width="0.7" height="711" transform="rotate(45 627.675 -139.078)" fill="#ACACAC"/>
<rect x="631.706" y="-135.047" width="0.7" height="711" transform="rotate(45 631.706 -135.047)" fill="#ACACAC"/>
<rect x="635.736" y="-131.017" width="0.7" height="711" transform="rotate(45 635.736 -131.017)" fill="#ACACAC"/>
<rect x="639.767" y="-126.986" width="0.7" height="711" transform="rotate(45 639.767 -126.986)" fill="#ACACAC"/>
<rect x="643.797" y="-122.956" width="0.7" height="711" transform="rotate(45 643.797 -122.956)" fill="#ACACAC"/>
<rect x="647.828" y="-118.925" width="0.7" height="711" transform="rotate(45 647.828 -118.925)" fill="#ACACAC"/>
<rect x="651.858" y="-114.895" width="0.7" height="711" transform="rotate(45 651.858 -114.895)" fill="#ACACAC"/>
<rect x="655.889" y="-110.864" width="0.7" height="711" transform="rotate(45 655.889 -110.864)" fill="#ACACAC"/>
<rect x="659.919" y="-106.833" width="0.7" height="711" transform="rotate(45 659.919 -106.833)" fill="#ACACAC"/>
<rect x="663.95" y="-102.803" width="0.7" height="711" transform="rotate(45 663.95 -102.803)" fill="#ACACAC"/>
<rect x="667.98" y="-98.7725" width="0.7" height="711" transform="rotate(45 667.98 -98.7725)" fill="#ACACAC"/>
<rect x="672.011" y="-94.7422" width="0.7" height="711" transform="rotate(45 672.011 -94.7422)" fill="#ACACAC"/>
<rect x="676.041" y="-90.7114" width="0.7" height="711" transform="rotate(45 676.041 -90.7114)" fill="#ACACAC"/>
<rect x="680.072" y="-86.6812" width="0.7" height="711" transform="rotate(45 680.072 -86.6812)" fill="#ACACAC"/>
<rect x="684.102" y="-82.6504" width="0.7" height="711" transform="rotate(45 684.102 -82.6504)" fill="#ACACAC"/>
<rect x="688.133" y="-78.6201" width="0.7" height="711" transform="rotate(45 688.133 -78.6201)" fill="#ACACAC"/>
<rect x="692.163" y="-74.5894" width="0.7" height="711" transform="rotate(45 692.163 -74.5894)" fill="#ACACAC"/>
<rect x="696.194" y="-70.5591" width="0.7" height="711" transform="rotate(45 696.194 -70.5591)" fill="#ACACAC"/>
<rect x="700.224" y="-66.5283" width="0.7" height="711" transform="rotate(45 700.224 -66.5283)" fill="#ACACAC"/>
<rect x="704.255" y="-62.498" width="0.7" height="711" transform="rotate(45 704.255 -62.498)" fill="#ACACAC"/>
<rect x="708.285" y="-58.4673" width="0.7" height="711" transform="rotate(45 708.285 -58.4673)" fill="#ACACAC"/>
<rect x="712.316" y="-54.437" width="0.7" height="711" transform="rotate(45 712.316 -54.437)" fill="#ACACAC"/>
<rect x="716.346" y="-50.4062" width="0.7" height="711" transform="rotate(45 716.346 -50.4062)" fill="#ACACAC"/>
<rect x="720.377" y="-46.376" width="0.7" height="711" transform="rotate(45 720.377 -46.376)" fill="#ACACAC"/>
<rect x="724.407" y="-42.3452" width="0.7" height="711" transform="rotate(45 724.407 -42.3452)" fill="#ACACAC"/>
<rect x="728.438" y="-38.3149" width="0.7" height="711" transform="rotate(45 728.438 -38.3149)" fill="#ACACAC"/>
<rect x="732.469" y="-34.2842" width="0.7" height="711" transform="rotate(45 732.469 -34.2842)" fill="#ACACAC"/>
<rect x="736.499" y="-30.2539" width="0.7" height="711" transform="rotate(45 736.499 -30.2539)" fill="#ACACAC"/>
<rect x="740.53" y="-26.2236" width="0.7" height="711" transform="rotate(45 740.53 -26.2236)" fill="#ACACAC"/>
<rect x="744.56" y="-22.1929" width="0.7" height="711" transform="rotate(45 744.56 -22.1929)" fill="#ACACAC"/>
</g>
</svg>
