<svg width="515" height="100" viewBox="0 0 515 100" fill="none" xmlns="http://www.w3.org/2000/svg">
<mask id="mask0_717_2952" style="mask-type:alpha" maskUnits="userSpaceOnUse" x="0" y="0" width="515" height="100">
<rect width="515" height="100" fill="#C4C4C4"/>
</mask>
<g mask="url(#mask0_717_2952)">
<rect x="363.753" y="-371" width="1" height="711" transform="rotate(45 363.753 -371)" fill="#ACACAC"/>
<rect x="370.117" y="-364.636" width="1" height="711" transform="rotate(45 370.117 -364.636)" fill="#ACACAC"/>
<rect x="376.481" y="-358.272" width="1" height="711" transform="rotate(45 376.481 -358.272)" fill="#ACACAC"/>
<rect x="382.845" y="-351.908" width="1" height="711" transform="rotate(45 382.845 -351.908)" fill="#ACACAC"/>
<rect x="389.209" y="-345.544" width="1" height="711" transform="rotate(45 389.209 -345.544)" fill="#ACACAC"/>
<rect x="395.573" y="-339.18" width="1" height="711" transform="rotate(45 395.573 -339.18)" fill="#ACACAC"/>
<rect x="401.937" y="-332.816" width="1" height="711" transform="rotate(45 401.937 -332.816)" fill="#ACACAC"/>
<rect x="408.301" y="-326.452" width="1" height="711" transform="rotate(45 408.301 -326.452)" fill="#ACACAC"/>
<rect x="414.665" y="-320.088" width="1" height="711" transform="rotate(45 414.665 -320.088)" fill="#ACACAC"/>
<rect x="421.029" y="-313.724" width="1" height="711" transform="rotate(45 421.029 -313.724)" fill="#ACACAC"/>
<rect x="427.393" y="-307.36" width="1" height="711" transform="rotate(45 427.393 -307.36)" fill="#ACACAC"/>
<rect x="433.756" y="-300.997" width="1" height="711" transform="rotate(45 433.756 -300.997)" fill="#ACACAC"/>
<rect x="440.12" y="-294.632" width="1" height="711" transform="rotate(45 440.12 -294.632)" fill="#ACACAC"/>
<rect x="446.484" y="-288.269" width="1" height="711" transform="rotate(45 446.484 -288.269)" fill="#ACACAC"/>
<rect x="452.848" y="-281.905" width="1" height="711" transform="rotate(45 452.848 -281.905)" fill="#ACACAC"/>
<rect x="459.212" y="-275.541" width="1" height="711" transform="rotate(45 459.212 -275.541)" fill="#ACACAC"/>
<rect x="465.576" y="-269.177" width="1" height="711" transform="rotate(45 465.576 -269.177)" fill="#ACACAC"/>
<rect x="471.94" y="-262.812" width="1" height="711" transform="rotate(45 471.94 -262.812)" fill="#ACACAC"/>
<rect x="478.304" y="-256.449" width="1" height="711" transform="rotate(45 478.304 -256.449)" fill="#ACACAC"/>
<rect x="484.668" y="-250.085" width="1" height="711" transform="rotate(45 484.668 -250.085)" fill="#ACACAC"/>
<rect x="491.032" y="-243.721" width="1" height="711" transform="rotate(45 491.032 -243.721)" fill="#ACACAC"/>
<rect x="497.396" y="-237.357" width="1" height="711" transform="rotate(45 497.396 -237.357)" fill="#ACACAC"/>
<rect x="503.76" y="-230.993" width="1" height="711" transform="rotate(45 503.76 -230.993)" fill="#ACACAC"/>
<rect x="510.124" y="-224.629" width="1" height="711" transform="rotate(45 510.124 -224.629)" fill="#ACACAC"/>
<rect x="516.488" y="-218.265" width="1" height="711" transform="rotate(45 516.488 -218.265)" fill="#ACACAC"/>
<rect x="522.852" y="-211.901" width="1" height="711" transform="rotate(45 522.852 -211.901)" fill="#ACACAC"/>
<rect x="529.216" y="-205.537" width="1" height="711" transform="rotate(45 529.216 -205.537)" fill="#ACACAC"/>
<rect x="535.58" y="-199.173" width="1" height="711" transform="rotate(45 535.58 -199.173)" fill="#ACACAC"/>
<rect x="541.944" y="-192.809" width="1" height="711" transform="rotate(45 541.944 -192.809)" fill="#ACACAC"/>
<rect x="548.308" y="-186.445" width="1" height="711" transform="rotate(45 548.308 -186.445)" fill="#ACACAC"/>
<rect x="554.672" y="-180.081" width="1" height="711" transform="rotate(45 554.672 -180.081)" fill="#ACACAC"/>
<rect x="561.036" y="-173.717" width="1" height="711" transform="rotate(45 561.036 -173.717)" fill="#ACACAC"/>
<rect x="567.4" y="-167.353" width="1" height="711" transform="rotate(45 567.4 -167.353)" fill="#ACACAC"/>
<rect x="573.764" y="-160.989" width="1" height="711" transform="rotate(45 573.764 -160.989)" fill="#ACACAC"/>
<rect x="580.128" y="-154.625" width="1" height="711" transform="rotate(45 580.128 -154.625)" fill="#ACACAC"/>
<rect x="586.492" y="-148.261" width="1" height="711" transform="rotate(45 586.492 -148.261)" fill="#ACACAC"/>
<rect x="592.856" y="-141.897" width="1" height="711" transform="rotate(45 592.856 -141.897)" fill="#ACACAC"/>
<rect x="599.219" y="-135.533" width="1" height="711" transform="rotate(45 599.219 -135.533)" fill="#ACACAC"/>
<rect x="605.583" y="-129.169" width="1" height="711" transform="rotate(45 605.583 -129.169)" fill="#ACACAC"/>
<rect x="611.947" y="-122.806" width="1" height="711" transform="rotate(45 611.947 -122.806)" fill="#ACACAC"/>
<rect x="618.311" y="-116.441" width="1" height="711" transform="rotate(45 618.311 -116.441)" fill="#ACACAC"/>
<rect x="624.675" y="-110.078" width="1" height="711" transform="rotate(45 624.675 -110.078)" fill="#ACACAC"/>
<rect x="631.039" y="-103.714" width="1" height="711" transform="rotate(45 631.039 -103.714)" fill="#ACACAC"/>
<rect x="637.403" y="-97.3496" width="1" height="711" transform="rotate(45 637.403 -97.3496)" fill="#ACACAC"/>
<rect x="643.767" y="-90.9858" width="1" height="711" transform="rotate(45 643.767 -90.9858)" fill="#ACACAC"/>
<rect x="650.131" y="-84.6216" width="1" height="711" transform="rotate(45 650.131 -84.6216)" fill="#ACACAC"/>
<rect x="656.495" y="-78.2578" width="1" height="711" transform="rotate(45 656.495 -78.2578)" fill="#ACACAC"/>
<rect x="662.859" y="-71.894" width="1" height="711" transform="rotate(45 662.859 -71.894)" fill="#ACACAC"/>
<rect x="669.223" y="-65.5298" width="1" height="711" transform="rotate(45 669.223 -65.5298)" fill="#ACACAC"/>
<rect x="675.587" y="-59.166" width="1" height="711" transform="rotate(45 675.587 -59.166)" fill="#ACACAC"/>
</g>
</svg>
