<svg width="1200" height="186" viewBox="0 0 1200 186" fill="none" xmlns="http://www.w3.org/2000/svg">
<mask id="mask0_717_3687" style="mask-type:alpha" maskUnits="userSpaceOnUse" x="0" y="0" width="1200" height="186">
<rect width="1200" height="186" fill="#C4C4C4"/>
</mask>
<g mask="url(#mask0_717_3687)">
<rect x="752.753" y="-763" width="1" height="1313" transform="rotate(45 752.753 -763)" fill="#ACACAC"/>
<rect x="765.481" y="-750.272" width="1" height="1313" transform="rotate(45 765.481 -750.272)" fill="#ACACAC"/>
<rect x="778.209" y="-737.544" width="1" height="1313" transform="rotate(45 778.209 -737.544)" fill="#ACACAC"/>
<rect x="790.937" y="-724.816" width="1" height="1313" transform="rotate(45 790.937 -724.816)" fill="#ACACAC"/>
<rect x="803.665" y="-712.088" width="1" height="1313" transform="rotate(45 803.665 -712.088)" fill="#ACACAC"/>
<rect x="816.393" y="-699.36" width="1" height="1313" transform="rotate(45 816.393 -699.36)" fill="#ACACAC"/>
<rect x="829.12" y="-686.632" width="1" height="1313" transform="rotate(45 829.12 -686.632)" fill="#ACACAC"/>
<rect x="841.848" y="-673.905" width="1" height="1313" transform="rotate(45 841.848 -673.905)" fill="#ACACAC"/>
<rect x="854.576" y="-661.177" width="1" height="1313" transform="rotate(45 854.576 -661.177)" fill="#ACACAC"/>
<rect x="867.304" y="-648.449" width="1" height="1313" transform="rotate(45 867.304 -648.449)" fill="#ACACAC"/>
<rect x="880.032" y="-635.721" width="1" height="1313" transform="rotate(45 880.032 -635.721)" fill="#ACACAC"/>
<rect x="892.76" y="-622.993" width="1" height="1313" transform="rotate(45 892.76 -622.993)" fill="#ACACAC"/>
<rect x="905.488" y="-610.265" width="1" height="1313" transform="rotate(45 905.488 -610.265)" fill="#ACACAC"/>
<rect x="918.216" y="-597.537" width="1" height="1313" transform="rotate(45 918.216 -597.537)" fill="#ACACAC"/>
<rect x="930.944" y="-584.809" width="1" height="1313" transform="rotate(45 930.944 -584.809)" fill="#ACACAC"/>
<rect x="943.672" y="-572.081" width="1" height="1313" transform="rotate(45 943.672 -572.081)" fill="#ACACAC"/>
<rect x="956.4" y="-559.353" width="1" height="1313" transform="rotate(45 956.4 -559.353)" fill="#ACACAC"/>
<rect x="969.128" y="-546.625" width="1" height="1313" transform="rotate(45 969.128 -546.625)" fill="#ACACAC"/>
<rect x="981.855" y="-533.897" width="1" height="1313" transform="rotate(45 981.855 -533.897)" fill="#ACACAC"/>
<rect x="994.583" y="-521.169" width="1" height="1313" transform="rotate(45 994.583 -521.169)" fill="#ACACAC"/>
<rect x="1007.31" y="-508.441" width="1" height="1313" transform="rotate(45 1007.31 -508.441)" fill="#ACACAC"/>
<rect x="1020.04" y="-495.714" width="1" height="1313" transform="rotate(45 1020.04 -495.714)" fill="#ACACAC"/>
<rect x="1032.77" y="-482.986" width="1" height="1313" transform="rotate(45 1032.77 -482.986)" fill="#ACACAC"/>
<rect x="1045.5" y="-470.258" width="1" height="1313" transform="rotate(45 1045.5 -470.258)" fill="#ACACAC"/>
<rect x="1058.22" y="-457.53" width="1" height="1313" transform="rotate(45 1058.22 -457.53)" fill="#ACACAC"/>
<rect x="1070.95" y="-444.802" width="1" height="1313" transform="rotate(45 1070.95 -444.802)" fill="#ACACAC"/>
<rect x="1083.68" y="-432.074" width="1" height="1313" transform="rotate(45 1083.68 -432.074)" fill="#ACACAC"/>
<rect x="1096.41" y="-419.346" width="1" height="1313" transform="rotate(45 1096.41 -419.346)" fill="#ACACAC"/>
<rect x="1109.13" y="-406.618" width="1" height="1313" transform="rotate(45 1109.13 -406.618)" fill="#ACACAC"/>
<rect x="1121.86" y="-393.89" width="1" height="1313" transform="rotate(45 1121.86 -393.89)" fill="#ACACAC"/>
<rect x="1134.59" y="-381.162" width="1" height="1313" transform="rotate(45 1134.59 -381.162)" fill="#ACACAC"/>
<rect x="1147.32" y="-368.435" width="1" height="1313" transform="rotate(45 1147.32 -368.435)" fill="#ACACAC"/>
<rect x="1160.05" y="-355.707" width="1" height="1313" transform="rotate(45 1160.05 -355.707)" fill="#ACACAC"/>
<rect x="1172.77" y="-342.979" width="1" height="1313" transform="rotate(45 1172.77 -342.979)" fill="#ACACAC"/>
<rect x="1185.5" y="-330.25" width="1" height="1313" transform="rotate(45 1185.5 -330.25)" fill="#ACACAC"/>
<rect x="1198.23" y="-317.523" width="1" height="1313" transform="rotate(45 1198.23 -317.523)" fill="#ACACAC"/>
<rect x="1210.96" y="-304.795" width="1" height="1313" transform="rotate(45 1210.96 -304.795)" fill="#ACACAC"/>
<rect x="1223.69" y="-292.067" width="1" height="1313" transform="rotate(45 1223.69 -292.067)" fill="#ACACAC"/>
<rect x="1236.41" y="-279.339" width="1" height="1313" transform="rotate(45 1236.41 -279.339)" fill="#ACACAC"/>
<rect x="1249.14" y="-266.611" width="1" height="1313" transform="rotate(45 1249.14 -266.611)" fill="#ACACAC"/>
<rect x="1261.87" y="-253.883" width="1" height="1313" transform="rotate(45 1261.87 -253.883)" fill="#ACACAC"/>
<rect x="1274.6" y="-241.155" width="1" height="1313" transform="rotate(45 1274.6 -241.155)" fill="#ACACAC"/>
<rect x="1287.33" y="-228.427" width="1" height="1313" transform="rotate(45 1287.33 -228.427)" fill="#ACACAC"/>
<rect x="1300.05" y="-215.699" width="1" height="1313" transform="rotate(45 1300.05 -215.699)" fill="#ACACAC"/>
<rect x="1312.78" y="-202.972" width="1" height="1313" transform="rotate(45 1312.78 -202.972)" fill="#ACACAC"/>
<rect x="1325.51" y="-190.244" width="1" height="1313" transform="rotate(45 1325.51 -190.244)" fill="#ACACAC"/>
<rect x="1338.24" y="-177.516" width="1" height="1313" transform="rotate(45 1338.24 -177.516)" fill="#ACACAC"/>
<rect x="1350.97" y="-164.788" width="1" height="1313" transform="rotate(45 1350.97 -164.788)" fill="#ACACAC"/>
<rect x="1363.69" y="-152.06" width="1" height="1313" transform="rotate(45 1363.69 -152.06)" fill="#ACACAC"/>
<rect x="1376.42" y="-139.332" width="1" height="1313" transform="rotate(45 1376.42 -139.332)" fill="#ACACAC"/>
<rect x="1389.15" y="-126.604" width="1" height="1313" transform="rotate(45 1389.15 -126.604)" fill="#ACACAC"/>
<rect x="1401.88" y="-113.876" width="1" height="1313" transform="rotate(45 1401.88 -113.876)" fill="#ACACAC"/>
<rect x="1414.6" y="-101.148" width="1" height="1313" transform="rotate(45 1414.6 -101.148)" fill="#ACACAC"/>
<rect x="1427.33" y="-88.4199" width="1" height="1313" transform="rotate(45 1427.33 -88.4199)" fill="#ACACAC"/>
<rect x="1440.06" y="-75.6924" width="1" height="1313" transform="rotate(45 1440.06 -75.6924)" fill="#ACACAC"/>
<rect x="1452.79" y="-62.9644" width="1" height="1313" transform="rotate(45 1452.79 -62.9644)" fill="#ACACAC"/>
</g>
</svg>
